HIERARCHY
ROOT hip
{
  OFFSET 0 0 0
  CHANNELS 6 Xposition Yposition Zposition Zrotation Yrotation Xrotation
  JOINT abdomen
  {
    OFFSET 0 20.6881 -0.73152
    CHANNELS 3 Zrotation Xrotation Yrotation
    JOINT chest
    {
      OFFSET 0 11.7043 -0.48768
      CHANNELS 3 Zrotation Xrotation Yrotation
      JOINT neck
      {
        OFFSET 0 22.1894 -2.19456
        CHANNELS 3 Zrotation Xrotation Yrotation
        JOINT head
        {
          OFFSET -0.24384 7.07133 1.2192
          CHANNELS 3 Zrotation Xrotation Yrotation
          JOINT leftEye
          {
            OFFSET 4.14528 8.04674 8.04672
            CHANNELS 3 Zrotation Xrotation Yrotation
            End Site
            {
              OFFSET 1 0 0
            }
          }
          JOINT rightEye
          {
            OFFSET -3.6576 8.04674 8.04672
            CHANNELS 3 Zrotation Xrotation Yrotation
            End Site
            {
              OFFSET 1 0 0
            }
          }
        }
      }
      JOINT rCollar
      {
        OFFSET -2.68224 19.2634 -4.8768
        CHANNELS 3 Zrotation Xrotation Yrotation
        JOINT rShldr
        {
          OFFSET -8.77824 -1.95073 1.46304
          CHANNELS 3 Zrotation Xrotation Yrotation
          JOINT rForeArm
          {
            OFFSET -28.1742 -1.7115 0.48768
            CHANNELS 3 Zrotation Xrotation Yrotation
            JOINT rHand
            {
              OFFSET -22.5879 0.773209 7.07136
              CHANNELS 3 Zrotation Xrotation Yrotation
              JOINT rThumb1
              {
                OFFSET -1.2192 -0.487915 3.41376
                CHANNELS 3 Zrotation Xrotation Yrotation
                JOINT rThumb2
                {
                  OFFSET -3.37035 -0.52449 3.41376
                  CHANNELS 3 Zrotation Xrotation Yrotation
                  End Site
                  {
                    OFFSET -1.78271 -1.18214 1.43049
                  }
                }
              }
              JOINT rIndex1
              {
                OFFSET -7.75947 0.938293 5.60832
                CHANNELS 3 Zrotation Xrotation Yrotation
                JOINT rIndex2
                {
                  OFFSET -2.54057 -0.884171 1.56538
                  CHANNELS 3 Zrotation Xrotation Yrotation
                  End Site
                  {
                    OFFSET -1.62519 -0.234802 1.16502
                  }
                }
              }
              JOINT rMid1
              {
                OFFSET -8.24714 1.18213 3.41376
                CHANNELS 3 Zrotation Xrotation Yrotation
                JOINT rMid2
                {
                  OFFSET -3.10165 -0.590103 1.0647
                  CHANNELS 3 Zrotation Xrotation Yrotation
                  End Site
                  {
                    OFFSET -2.48547 -0.328903 0.83742
                  }
                }
              }
              JOINT rRing1
              {
                OFFSET -8.82822 0.546677 1.51678
                CHANNELS 3 Zrotation Xrotation Yrotation
                JOINT rRing2
                {
                  OFFSET -2.60934 -0.819778 -0.0198488
                  CHANNELS 3 Zrotation Xrotation Yrotation
                  End Site
                  {
                    OFFSET -2.33842 -0.294052 0.168128
                  }
                }
              }
              JOINT rPinky1
              {
                OFFSET -8.27202 -0.0477905 -0.4584
                CHANNELS 3 Zrotation Xrotation Yrotation
                JOINT rPinky2
                {
                  OFFSET -1.82734 -0.647385 -0.700984
                  CHANNELS 3 Zrotation Xrotation Yrotation
                  End Site
                  {
                    OFFSET -1.69225 -0.51767 -0.607171
                  }
                }
              }
            }
          }
        }
      }
      JOINT lCollar
      {
        OFFSET 2.68224 19.2634 -4.8768
        CHANNELS 3 Zrotation Xrotation Yrotation
        JOINT lShldr
        {
          OFFSET 8.77824 -1.95073 1.46304
          CHANNELS 3 Zrotation Xrotation Yrotation
          JOINT lForeArm
          {
            OFFSET 28.1742 -1.7115 0.48768
            CHANNELS 3 Zrotation Xrotation Yrotation
            JOINT lHand
            {
              OFFSET 22.5879 0.773209 7.07136
              CHANNELS 3 Zrotation Xrotation Yrotation
              JOINT lThumb1
              {
                OFFSET 1.2192 -0.487915 3.41376
                CHANNELS 3 Zrotation Xrotation Yrotation
                JOINT lThumb2
                {
                  OFFSET 3.37035 -0.52449 3.41376
                  CHANNELS 3 Zrotation Xrotation Yrotation
                  End Site
                  {
                    OFFSET 1.78271 -1.18214 1.43049
                  }
                }
              }
              JOINT lIndex1
              {
                OFFSET 7.75947 0.938293 5.60832
                CHANNELS 3 Zrotation Xrotation Yrotation
                JOINT lIndex2
                {
                  OFFSET 2.54057 -0.884171 1.56538
                  CHANNELS 3 Zrotation Xrotation Yrotation
                  End Site
                  {
                    OFFSET 1.62519 -0.234802 1.16502
                  }
                }
              }
              JOINT lMid1
              {
                OFFSET 8.24714 1.18213 3.41376
                CHANNELS 3 Zrotation Xrotation Yrotation
                JOINT lMid2
                {
                  OFFSET 3.10165 -0.590103 1.0647
                  CHANNELS 3 Zrotation Xrotation Yrotation
                  End Site
                  {
                    OFFSET 2.48547 -0.328903 0.83742
                  }
                }
              }
              JOINT lRing1
              {
                OFFSET 8.82822 0.546677 1.51678
                CHANNELS 3 Zrotation Xrotation Yrotation
                JOINT lRing2
                {
                  OFFSET 2.60934 -0.819778 -0.0198488
                  CHANNELS 3 Zrotation Xrotation Yrotation
                  End Site
                  {
                    OFFSET 2.33842 -0.294052 0.168128
                  }
                }
              }
              JOINT lPinky1
              {
                OFFSET 8.27202 -0.0477905 -0.4584
                CHANNELS 3 Zrotation Xrotation Yrotation
                JOINT lPinky2
                {
                  OFFSET 1.82734 -0.647385 -0.700984
                  CHANNELS 3 Zrotation Xrotation Yrotation
                  End Site
                  {
                    OFFSET 1.69225 -0.51767 -0.607171
                  }
                }
              }
            }
          }
        }
      }
    }
  }
  JOINT rButtock
  {
    OFFSET -8.77824 4.35084 1.2192
    CHANNELS 3 Zrotation Xrotation Yrotation
    JOINT rThigh
    {
      OFFSET 0 -1.70687 -2.19456
      CHANNELS 3 Zrotation Xrotation Yrotation
      JOINT rShin
      {
        OFFSET 0 -36.8199 0.73152
        CHANNELS 3 Zrotation Xrotation Yrotation
        JOINT rFoot
        {
          OFFSET 0.73152 -45.1104 -5.12064
          CHANNELS 3 Zrotation Xrotation Yrotation
          End Site
          {
            OFFSET -1.1221 -3.69964 12.103
          }
        }
      }
    }
  }
  JOINT lButtock
  {
    OFFSET 8.77824 4.35084 1.2192
    CHANNELS 3 Zrotation Xrotation Yrotation
    JOINT lThigh
    {
      OFFSET 0 -1.70687 -2.19456
      CHANNELS 3 Zrotation Xrotation Yrotation
      JOINT lShin
      {
        OFFSET 0 -36.8199 0.73152
        CHANNELS 3 Zrotation Xrotation Yrotation
        JOINT lFoot
        {
          OFFSET -0.73152 -45.1104 -5.12064
          CHANNELS 3 Zrotation Xrotation Yrotation
          End Site
          {
            OFFSET 1.1221 -3.69964 12.103
          }
        }
      }
    }
  }
}
MOTION
Frames:	8
Frame Time:	0.00833333
-1.38354 145.002 -29.8506 0.1868 -31.6393 4.0902 -4.02947 6.29458 0.555876 2.29676 -0.843206 0.0509064 -9.58023 2.88157 3.95451 -4.14478 27.306 9.82325 -0.0 0.0 0.0 -0.0 0.0 0.0 3.57896e-14 1.93598e-14 -4.1204e-14 76.1616 21.8518 -0.932636 -16.6882 -9.34265 31.1395 -0.430237 18.3212 2.66735 -1.1254e-09 1.40407e-09 -1.51517e-10 -1.94698e-09 2.43477e-09 -2.42449e-10 -1.1254e-09 1.40408e-09 -1.51524e-10 7.73091 5.47488 0.417314 -1.12541e-09 1.40407e-09 -1.51515e-10 2.90554 0.965183 0.102902 -1.1254e-09 1.40408e-09 -1.51518e-10 10.2786 0.731801 0.0259123 -1.12541e-09 1.40408e-09 -1.51509e-10 2.22167 -0.733487 -0.20892 3.57453e-14 1.93655e-14 -4.13014e-14 -77.6826 14.2522 -0.839298 -14.8962 -7.70078 27.3755 0.0139112 3.36479 -0.47344 -1.32701e-09 -2.56002e-10 5.64534e-10 -2.29463e-09 -4.33434e-10 9.84978e-10 -1.32702e-09 -2.56004e-10 5.64544e-10 -7.73091 5.47488 -0.417314 -1.32701e-09 -2.56e-10 5.64533e-10 -2.90554 0.965183 -0.102902 -1.32701e-09 -2.56002e-10 5.64531e-10 -10.2786 0.731801 -0.0259123 -1.327e-09 -2.56e-10 5.64521e-10 -2.22167 -0.733487 0.20892 -2.03217e-16 0.0 -3.88251e-19 -3.76474 -20.2789 12.3268 -0.226392 30.2297 0.377828 1.56602 -1.28129 15.3866 2.03217e-16 0.0 3.88251e-19 -5.0401 -22.7302 -11.6261 0.0441642 27.2261 -0.37719 -2.58142 -2.41938 -29.8237
-1.56472 145.022 -29.8651 0.2312 -30.8799 4.0214 -3.84189 6.17685 0.361464 2.32817 -0.924827 0.000179672 -9.63444 3.22606 4.049 -4.34747 27.2294 10.0159 -0.0 0.0 0.0 -0.0 0.0 0.0 1.82502e-15 -4.87516e-14 -2.11737e-14 76.2347 21.9334 -1.1866 -16.6514 -9.30675 31.0602 -0.429764 18.3116 2.66586 -7.62768e-10 6.54578e-10 1.32346e-10 -1.31726e-09 1.13498e-09 2.42097e-10 -7.62766e-10 6.54582e-10 1.32338e-10 7.73091 5.47488 0.417314 -7.6277e-10 6.5458e-10 1.32347e-10 2.90554 0.965183 0.102902 -7.62766e-10 6.5458e-10 1.32345e-10 10.2786 0.731801 0.0259123 -7.62773e-10 6.54584e-10 1.32351e-10 2.22167 -0.733487 -0.20892 1.79982e-15 -4.87522e-14 -2.13631e-14 -77.9042 14.0366 -0.478155 -14.9128 -7.71496 27.4096 0.0139074 3.36358 -0.47327 -6.54868e-10 4.34768e-11 2.68636e-10 -1.13312e-09 8.04492e-11 4.69709e-10 -6.54877e-10 4.34771e-11 2.68648e-10 -7.73091 5.47488 -0.417314 -6.54866e-10 4.34787e-11 2.68635e-10 -2.90554 0.965183 -0.102902 -6.5487e-10 4.34777e-11 2.68631e-10 -10.2786 0.731801 -0.0259123 -6.54859e-10 4.34792e-11 2.68619e-10 -2.22167 -0.733487 0.20892 -2.03217e-16 0.0 -3.88251e-19 -3.67342 -19.8839 11.9698 -0.224892 30.0115 0.366843 1.64145 -1.91481 14.7285 2.03217e-16 0.0 3.88251e-19 -5.00839 -22.734 -11.9492 0.0441269 27.1673 -0.372485 -2.45605 -2.09663 -30.3203
-1.71667 145.045 -29.8656 0.3171 -30.03 3.9353 -3.65333 6.06706 0.196268 2.35665 -1.01641 -0.0416934 -9.69443 3.54344 4.13437 -4.54135 27.1545 10.1958 -0.0 0.0 0.0 -0.0 0.0 0.0 -3.52308e-14 -1.21311e-13 1.82397e-14 76.3071 21.9972 -1.43331 -16.6187 -9.27509 30.9901 -0.428309 18.2822 2.66127 -4.08418e-10 -8.649e-11 4.47369e-10 -7.01294e-10 -1.51003e-10 7.80585e-10 -4.08415e-10 -8.64871e-11 4.4736e-10 7.73091 5.47488 0.417314 -4.08419e-10 -8.64894e-11 4.47369e-10 2.90554 0.965183 0.102902 -4.08417e-10 -8.64892e-11 4.47369e-10 10.2786 0.731801 0.0259123 -4.08425e-10 -8.64844e-11 4.47373e-10 2.22167 -0.733487 -0.20892 -3.52402e-14 -1.21318e-13 1.79535e-14 -78.1221 13.8067 -0.135879 -14.9204 -7.72153 27.4253 0.0139525 3.36902 -0.474038 1.5044e-11 2.23159e-10 -3.04775e-11 2.46001e-11 3.86927e-10 -5.10896e-11 1.50365e-11 2.23161e-10 -3.04651e-11 -7.73091 5.47488 -0.417314 1.50453e-11 2.23161e-10 -3.04803e-11 -2.90554 0.965183 -0.102902 1.50408e-11 2.2316e-10 -3.04854e-11 -10.2786 0.731801 -0.0259123 1.50514e-11 2.23161e-10 -3.04986e-11 -2.22167 -0.733487 0.20892 -2.03217e-16 0.0 -3.88251e-19 -3.578 -19.5159 11.5585 -0.223391 29.7821 0.355312 1.72029 -2.61988 14.0766 2.03217e-16 0.0 3.88251e-19 -4.97411 -22.7712 -12.2719 0.0441665 27.1163 -0.368563 -2.29858 -1.73505 -30.7959
-1.83481 145.059 -29.8857 0.3839 -29.1036 3.9773 -3.57605 5.94581 0.141551 2.35743 -1.05657 -0.0544568 -9.76289 3.71298 4.16796 -4.5923 27.1264 10.2803 -0.0 0.0 0.0 -0.0 0.0 0.0 -7.0762e-14 -1.71745e-13 1.30552e-13 76.3966 21.9582 -1.62018 -16.5903 -9.24746 30.929 -0.427019 18.2561 2.65718 -4.53552e-10 -1.70955e-10 7.94967e-10 -7.74382e-10 -3.01291e-10 1.38207e-09 -4.5355e-10 -1.70952e-10 7.94957e-10 7.73091 5.47488 0.417314 -4.53554e-10 -1.70955e-10 7.94967e-10 2.90554 0.965183 0.102902 -4.53551e-10 -1.70955e-10 7.94967e-10 10.2786 0.731801 0.0259123 -4.53561e-10 -1.7095e-10 7.9497e-10 2.22167 -0.733487 -0.20892 -7.07773e-14 -1.71754e-13 1.30204e-13 -78.2461 13.6583 0.0575897 -14.906 -7.70933 27.3956 0.0141918 3.39915 -0.478287 1.77427e-10 1.38825e-10 -5.13882e-11 3.05381e-10 2.39833e-10 -8.78016e-11 1.7742e-10 1.38828e-10 -5.13755e-11 -7.73091 5.47488 -0.417314 1.77428e-10 1.38825e-10 -5.13914e-11 -2.90554 0.965183 -0.102902 1.77424e-10 1.38825e-10 -5.1397e-11 -10.2786 0.731801 -0.0259123 1.77434e-10 1.38826e-10 -5.14105e-11 -2.22167 -0.733487 0.20892 -2.03217e-16 0.0 -3.88251e-19 -3.58528 -19.2267 11.0877 -0.222193 29.582 0.34507 1.78349 -3.2855 13.48 2.03217e-16 0.0 3.88251e-19 -5.02647 -22.8337 -12.5881 0.0430675 27.0215 -0.36499 -2.09806 -1.32829 -31.246
-1.95766 145.065 -29.9394 0.4384 -28.273 4.1134 -3.6768 5.7987 0.216672 2.31992 -1.02013 -0.0339277 -9.86863 3.69852 4.12614 -4.40171 27.1398 10.2173 -0.0 0.0 0.0 -0.0 0.0 0.0 -1.12561e-13 -1.9598e-13 4.13988e-13 76.5151 21.7666 -1.74001 -16.5709 -9.22863 30.8876 -0.425509 18.2251 2.65236 -1.32132e-09 1.0219e-09 1.28881e-09 -2.26544e-09 1.75673e-09 2.25009e-09 -1.32131e-09 1.02191e-09 1.2888e-09 7.73091 5.47488 0.417314 -1.32132e-09 1.0219e-09 1.28881e-09 2.90554 0.965183 0.102902 -1.32131e-09 1.0219e-09 1.28882e-09 10.2786 0.731801 0.0259123 -1.32132e-09 1.02191e-09 1.28882e-09 2.22167 -0.733487 -0.20892 -1.1262e-13 -1.95986e-13 4.13632e-13 -78.236 13.6545 0.0364575 -14.8566 -7.66716 27.2936 0.0146042 3.44334 -0.484522 -6.21206e-10 -5.05875e-10 4.70057e-10 -1.07425e-09 -8.70671e-10 8.19276e-10 -6.21213e-10 -5.05875e-10 4.70069e-10 -7.73091 5.47488 -0.417314 -6.21206e-10 -5.05878e-10 4.70054e-10 -2.90554 0.965183 -0.102902 -6.21209e-10 -5.05878e-10 4.70049e-10 -10.2786 0.731801 -0.0259123 -6.21198e-10 -5.05877e-10 4.70038e-10 -2.22167 -0.733487 0.20892 -2.03217e-16 0.0 -3.88251e-19 -3.79832 -19.0398 10.4444 -0.221429 29.4257 0.33625 1.84003 -3.90934 12.9694 2.03217e-16 0.0 3.88251e-19 -5.25479 -22.9293 -12.9391 0.040312 26.8608 -0.36164 -1.8292 -0.842248 -31.6549
-2.05136 145.071 -29.9797 0.6688 -27.5012 4.1597 -3.88227 5.63916 0.378944 2.25862 -0.942747 0.00949626 -10.0007 3.56577 4.03568 -4.06214 27.1764 10.061 -0.0 0.0 0.0 -0.0 0.0 0.0 -1.60083e-13 -2.07183e-13 8.12023e-13 76.6498 21.4769 -1.81828 -16.5591 -9.21714 30.8623 -0.423407 18.1819 2.64562 -2.69679e-09 2.9971e-09 1.89039e-09 -4.63136e-09 5.1669e-09 3.3128e-09 -2.69679e-09 2.9971e-09 1.89038e-09 7.73091 5.47488 0.417314 -2.6968e-09 2.9971e-09 1.89039e-09 2.90554 0.965183 0.102902 -2.69679e-09 2.9971e-09 1.89039e-09 10.2786 0.731801 0.0259123 -2.6968e-09 2.9971e-09 1.8904e-09 2.22167 -0.733487 -0.20892 -1.6021e-13 -2.07184e-13 8.11687e-13 -78.1465 13.7318 -0.119332 -14.782 -7.60351 27.1404 0.015142 3.4971 -0.492111 -2.00512e-09 -1.54806e-09 1.32073e-09 -3.46507e-09 -2.66523e-09 2.2993e-09 -2.00513e-09 -1.54806e-09 1.32074e-09 -7.73091 5.47488 -0.417314 -2.00512e-09 -1.54807e-09 1.32073e-09 -2.90554 0.965183 -0.102902 -2.00512e-09 -1.54807e-09 1.32073e-09 -10.2786 0.731801 -0.0259123 -2.00511e-09 -1.54807e-09 1.32072e-09 -2.22167 -0.733487 0.20892 -2.03217e-16 0.0 -3.88251e-19 -4.13633 -18.9226 9.66784 -0.220891 29.2904 0.327976 1.89803 -4.54067 12.5124 2.03217e-16 0.0 3.88251e-19 -5.59097 -23.0586 -13.3143 0.0366193 26.6646 -0.358754 -1.50416 -0.292029 -32.0314
-2.08524 145.074 -30.0161 1.1654 -26.8162 4.0997 -4.09447 5.48951 0.616537 2.18654 -0.854363 0.0742025 -10.1015 3.3469 3.92944 -3.72633 27.2618 9.88798 -0.0 0.0 0.0 -0.0 0.0 0.0 -1.96202e-13 -2.04646e-13 1.14604e-12 76.7818 21.1613 -1.8514 -16.5449 -9.20346 30.8319 -0.421855 18.1499 2.64063 -3.8641e-09 4.72925e-09 2.37282e-09 -6.63942e-09 8.15796e-09 4.16608e-09 -3.8641e-09 4.72926e-09 2.37281e-09 7.73091 5.47488 0.417314 -3.8641e-09 4.72926e-09 2.37282e-09 2.90554 0.965183 0.102902 -3.86409e-09 4.72926e-09 2.37282e-09 10.2786 0.731801 0.0259123 -3.86411e-09 4.72926e-09 2.37283e-09 2.22167 -0.733487 -0.20892 -1.96396e-13 -2.0464e-13 1.14573e-12 -78.0315 13.7966 -0.320572 -14.7037 -7.53686 26.9806 0.0159435 3.58774 -0.5049 -3.23576e-09 -2.4431e-09 2.06614e-09 -5.59118e-09 -4.20623e-09 3.59607e-09 -3.23577e-09 -2.44311e-09 2.06615e-09 -7.73091 5.47488 -0.417314 -3.23576e-09 -2.44312e-09 2.06614e-09 -2.90554 0.965183 -0.102902 -3.23576e-09 -2.44312e-09 2.06614e-09 -10.2786 0.731801 -0.0259123 -3.23575e-09 -2.44312e-09 2.06613e-09 -2.22167 -0.733487 0.20892 -2.03217e-16 0.0 -3.88251e-19 -4.43325 -18.8454 8.98016 -0.220328 29.1603 0.320543 1.94187 -5.1448 12.0633 2.03217e-16 0.0 3.88251e-19 -5.88688 -23.2031 -13.6298 0.032634 26.4598 -0.356447 -1.16883 0.255358 -32.4074
-2.16508 145.073 -30.0867 1.4698 -26.2418 4.1242 -4.21588 5.37206 0.917673 2.11675 -0.784906 0.15858 -10.1132 3.0741 3.84023 -3.54701 27.4216 9.77502 -0.0 0.0 0.0 -0.0 0.0 0.0 -2.03795e-13 -1.87658e-13 1.23743e-12 76.8927 20.8921 -1.8359 -16.5185 -9.178 30.7749 -0.421979 18.1526 2.64105 -4.10734e-09 5.19298e-09 2.50922e-09 -7.05685e-09 8.95866e-09 4.40586e-09 -4.10734e-09 5.19299e-09 2.5092e-09 7.73091 5.47488 0.417314 -4.10734e-09 5.19298e-09 2.50922e-09 2.90554 0.965183 0.102902 -4.10733e-09 5.19298e-09 2.50922e-09 10.2786 0.731801 0.0259123 -4.10735e-09 5.19299e-09 2.50923e-09 2.22167 -0.733487 -0.20892 -2.04025e-13 -1.87649e-13 1.23714e-12 -77.9467 13.7554 -0.47772 -14.6438 -7.48594 26.8588 0.0172097 3.74257 -0.52674 -3.5746e-09 -2.64638e-09 2.27177e-09 -6.17669e-09 -4.55604e-09 3.95339e-09 -3.57461e-09 -2.64639e-09 2.27178e-09 -7.73091 5.47488 -0.417314 -3.5746e-09 -2.64639e-09 2.27177e-09 -2.90554 0.965183 -0.102902 -3.5746e-09 -2.6464e-09 2.27177e-09 -10.2786 0.731801 -0.0259123 -3.57459e-09 -2.64639e-09 2.27177e-09 -2.22167 -0.733487 0.20892 -2.03217e-16 0.0 -3.88251e-19 -4.5234 -18.7817 8.60366 -0.219499 29.0199 0.314252 1.95513 -5.68711 11.5761 2.03217e-16 0.0 3.88251e-19 -5.99286 -23.3451 -13.8012 0.0289929 26.2734 -0.35483 -0.869753 0.733318 -32.8132
